<?xml version="1.0" encoding="utf-8"?>
<!-- Generator: Adobe Illustrator 18.1.0, SVG Export Plug-In . SVG Version: 6.00 Build 0)  -->
<svg version="1.1" id="Livello_1" xmlns="http://www.w3.org/2000/svg" xmlns:xlink="http://www.w3.org/1999/xlink" x="0px" y="0px"
	 viewBox="-247 370.9 100 100" enable-background="new -247 370.9 100 100" xml:space="preserve">
<path fill="#FFFFFF" d="M-197,370.9c-18.7,0-33.9,15.2-33.9,33.9c0,0.4,0,0.8,0,1.2c0.1,3.6,0.8,7,1.9,10.2
	c7.2,23.8,31.9,54.7,31.9,54.7s24.7-31,31.9-54.7c1.1-3.2,1.8-6.6,1.9-10.2c0-0.4,0-0.8,0-1.2C-163.1,386.1-178.3,370.9-197,370.9z
	 M-197,421.3c-9.2,0-16.6-7.4-16.6-16.6c0-9.2,7.4-16.6,16.6-16.6c9.2,0,16.6,7.4,16.6,16.6C-180.4,413.9-187.8,421.3-197,421.3z"/>
</svg>
