<?xml version="1.0" encoding="utf-8"?>
<!-- Generator: Adobe Illustrator 18.1.0, SVG Export Plug-In . SVG Version: 6.00 Build 0)  -->
<svg version="1.1" id="Layer_1" xmlns="http://www.w3.org/2000/svg" xmlns:xlink="http://www.w3.org/1999/xlink" x="0px" y="0px"
	 viewBox="-247 370.9 100 100" enable-background="new -247 370.9 100 100" xml:space="preserve">
<path fill="#E8E8E8" d="M-165.2,442v-10c5.4-3.1,9.1-9,9.1-15.7c0-10-8.1-18.2-18.2-18.2c-3.6,0-7,1.1-9.9,2.9
	c-2.8-12.1-13.6-21.1-26.5-21.1c-15.1,0-27.3,12.2-27.3,27.3c0,8.1,3.5,15.3,9.1,20.3v11.2c-10.9-6.3-18.2-18-18.2-31.5
	c0-20.1,16.3-36.4,36.4-36.4c13.6,0,25.5,7.5,31.7,18.6c1.5-0.3,3-0.5,4.6-0.5c15.1,0,27.3,12.2,27.3,27.3
	C-147,428.2-154.6,438.3-165.2,442z"/>
<path fill="#E8E8E8" d="M-215.2,416.3c2.5,0,4.5,2,4.5,4.5v36.4c0,2.5-2,4.5-4.5,4.5c-2.5,0-4.5-2-4.5-4.5v-36.4
	C-219.7,418.4-217.7,416.3-215.2,416.3z"/>
<path fill="#E8E8E8" d="M-197,425.4c2.5,0,4.5,2,4.5,4.5v36.4c0,2.5-2,4.5-4.5,4.5s-4.5-2-4.5-4.5V430
	C-201.5,427.5-199.5,425.4-197,425.4z"/>
<path fill="#E8E8E8" d="M-178.8,416.3c2.5,0,4.5,2,4.5,4.5v36.4c0,2.5-2,4.5-4.5,4.5c-2.5,0-4.5-2-4.5-4.5v-36.4
	C-183.4,418.4-181.3,416.3-178.8,416.3z"/>
</svg>
