<?xml version="1.0" encoding="utf-8"?>
<!-- Generator: Adobe Illustrator 18.1.0, SVG Export Plug-In . SVG Version: 6.00 Build 0)  -->
<svg version="1.1" id="Layer_1" xmlns="http://www.w3.org/2000/svg" xmlns:xlink="http://www.w3.org/1999/xlink" x="0px" y="0px"
	 viewBox="-233 356.9 128 128" enable-background="new -233 356.9 128 128" xml:space="preserve">
<path fill="#FFFFFF" d="M-169.3,396.9c-2.2,0-4.4,0.3-6.6,0.8c-10.9,2.6-19.7,11.4-22.2,22.4c0,0,0,0,0,0
	c-2.5,11,1.5,22.8,10.4,29.9v0c0,0,0,0,0,0c9,7.3,21.7,8.7,32.1,3.5c10-5,16.5-15.5,16.5-26.8h-3.7c0,9.8-5.7,19-14.5,23.4
	c-9.1,4.5-20.3,3.3-28.1-3.1c-7.8-6.2-11.3-16.6-9.1-26.2c2.2-9.6,9.9-17.3,19.4-19.6c8.5-2,17.7,0.4,24.1,6.5l-3.5,3.6
	c-0.3,0.3-0.2,0.6,0.2,0.7l11.7,2.5c0.4,0,0.6-0.2,0.5-0.6l-2.5-11.6c-0.1-0.4-0.4-0.5-0.6-0.2l-3.1,3.1c-5.5-5.2-12.7-8.1-20-8.3
	C-168.7,396.9-169,396.9-169.3,396.9L-169.3,396.9z"/>
</svg>
